# xmcd
#
# Track frame offsets: 
#        150
#        15107
#        29909
#        48933
#        64072
#        80693
#        95472
#        109590
#        124388
#        137820
#        152315
#        166695
#        193117
#
# Disc length: 3202 seconds
#
# Revision: 4
# Processed by: cddbd v1.5.2PL0 Copyright (c) Steve Scherf et al.
# Submitted via: ExactAudioCopy v0.99pb4
#
DISCID=a20c800d
DTITLE=Austin, Sherrié - Followin' a feelin'
DYEAR=2001
DGENRE=Country
TTITLE0=Followin' a feelin'
TTITLE1=Jolene
TTITLE2=Goin' goin' gone
TTITLE3=Somethin' missin' in the kissin'
TTITLE4=In the meantime
TTITLE5=My brilliant mistake
TTITLE6=In our own sweet time
TTITLE7=Love melts even the coldest hearts
TTITLE8=Back where I belong
TTITLE9=Time love and money
TTITLE10=The liar
TTITLE11=Winter wonderland
TTITLE12=Data Track
EXTD=
EXTT0=
EXTT1=
EXTT2=
EXTT3=
EXTT4=
EXTT5=
EXTT6=
EXTT7=
EXTT8=
EXTT9=
EXTT10=
EXTT11=
EXTT12=Bonus Tracks (Video): Jolene, In The Meantime
PLAYORDER=
